<?xml version="1.0" encoding="UTF-8"?>
<svg xmlns="http://www.w3.org/2000/svg" xmlns:xlink="http://www.w3.org/1999/xlink" width="24pt" height="24pt" viewBox="0 0 24 24" version="1.1">
<g id="surface1">
<path style=" stroke:none;fill-rule:nonzero;fill:rgb(0%,0%,0%);fill-opacity:1;" d="M 22.367188 5.96875 C 21.296875 4.132812 19.839844 2.679688 18.003906 1.609375 C 16.167969 0.535156 14.164062 0 11.988281 0 C 9.8125 0 7.808594 0.535156 5.96875 1.609375 C 4.132812 2.679688 2.679688 4.132812 1.609375 5.96875 C 0.535156 7.808594 0 9.8125 0 11.988281 C 0 14.160156 0.535156 16.167969 1.609375 18.003906 C 2.679688 19.839844 4.132812 21.292969 5.96875 22.367188 C 7.808594 23.4375 9.8125 23.972656 11.988281 23.972656 C 14.164062 23.972656 16.167969 23.4375 18.003906 22.367188 C 19.839844 21.296875 21.296875 19.839844 22.367188 18.003906 C 23.4375 16.167969 23.972656 14.160156 23.972656 11.988281 C 23.972656 9.8125 23.4375 7.804688 22.367188 5.96875 Z M 21.179688 15.867188 C 20.648438 17.097656 19.941406 18.160156 19.050781 19.050781 C 18.160156 19.941406 17.097656 20.648438 15.867188 21.179688 C 14.632812 21.710938 13.339844 21.976562 11.988281 21.976562 C 10.636719 21.976562 9.34375 21.710938 8.109375 21.179688 C 6.875 20.648438 5.8125 19.941406 4.925781 19.050781 C 4.035156 18.160156 3.324219 17.097656 2.792969 15.867188 C 2.261719 14.632812 2 13.339844 2 11.988281 C 2 10.632812 2.261719 9.339844 2.792969 8.109375 C 3.324219 6.875 4.035156 5.8125 4.925781 4.925781 C 5.8125 4.035156 6.875 3.324219 8.109375 2.792969 C 9.34375 2.261719 10.636719 1.996094 11.988281 1.996094 C 13.339844 1.996094 14.632812 2.261719 15.867188 2.792969 C 17.097656 3.324219 18.160156 4.035156 19.050781 4.925781 C 19.941406 5.8125 20.648438 6.875 21.179688 8.109375 C 21.710938 9.339844 21.976562 10.632812 21.976562 11.988281 C 21.976562 13.339844 21.710938 14.632812 21.179688 15.867188 Z M 21.179688 15.867188 "/>
<path style=" stroke:none;fill-rule:nonzero;fill:rgb(0%,0%,0%);fill-opacity:1;" d="M 15.546875 14.140625 C 14.496094 13.371094 13.308594 12.984375 11.988281 12.984375 C 10.667969 12.984375 9.480469 13.371094 8.429688 14.140625 C 7.378906 14.910156 6.660156 15.925781 6.273438 17.183594 C 6.191406 17.445312 6.210938 17.699219 6.335938 17.941406 C 6.460938 18.1875 6.660156 18.351562 6.929688 18.433594 C 7.191406 18.515625 7.441406 18.496094 7.6875 18.371094 C 7.933594 18.246094 8.097656 18.046875 8.179688 17.777344 C 8.4375 16.945312 8.921875 16.269531 9.621094 15.757812 C 10.324219 15.242188 11.113281 14.984375 11.988281 14.984375 C 12.863281 14.984375 13.648438 15.242188 14.351562 15.757812 C 15.054688 16.269531 15.535156 16.945312 15.796875 17.777344 C 15.878906 18.046875 16.046875 18.246094 16.296875 18.371094 C 16.542969 18.496094 16.800781 18.515625 17.058594 18.433594 C 17.320312 18.351562 17.511719 18.1875 17.636719 17.941406 C 17.761719 17.699219 17.785156 17.445312 17.699219 17.183594 C 17.316406 15.925781 16.597656 14.910156 15.546875 14.140625 Z M 15.546875 14.140625 "/>
<path style=" stroke:none;fill-rule:nonzero;fill:rgb(0%,0%,0%);fill-opacity:1;" d="M 7.992188 9.988281 C 8.542969 9.988281 9.015625 9.792969 9.402344 9.402344 C 9.792969 9.015625 9.988281 8.542969 9.988281 7.992188 C 9.988281 7.441406 9.792969 6.96875 9.402344 6.578125 C 9.015625 6.1875 8.542969 5.992188 7.992188 5.992188 C 7.441406 5.992188 6.96875 6.1875 6.578125 6.578125 C 6.1875 6.96875 5.992188 7.441406 5.992188 7.992188 C 5.992188 8.542969 6.1875 9.015625 6.578125 9.402344 C 6.96875 9.792969 7.441406 9.988281 7.992188 9.988281 Z M 7.992188 9.988281 "/>
<path style=" stroke:none;fill-rule:nonzero;fill:rgb(0%,0%,0%);fill-opacity:1;" d="M 15.984375 5.992188 C 15.429688 5.992188 14.960938 6.1875 14.570312 6.578125 C 14.179688 6.96875 13.984375 7.441406 13.984375 7.992188 C 13.984375 8.542969 14.179688 9.015625 14.570312 9.402344 C 14.960938 9.792969 15.429688 9.988281 15.984375 9.988281 C 16.535156 9.988281 17.003906 9.792969 17.394531 9.402344 C 17.785156 9.015625 17.980469 8.542969 17.980469 7.992188 C 17.980469 7.441406 17.785156 6.96875 17.394531 6.578125 C 17.003906 6.1875 16.535156 5.992188 15.984375 5.992188 Z M 15.984375 5.992188 "/>
</g>
</svg>
